<svg width="157" height="37" viewBox="0 0 157 37" fill="none" xmlns="http://www.w3.org/2000/svg">
<g clip-path="url(#clip0_111_4)">
<path d="M28.6438 6.39142H32.4695L26.2295 24.9749H21.8095L17.3153 11.5307C17.1667 11.1211 17.0924 10.6742 17.0924 10.2273V8.99832H16.5353V10.2273C16.5353 10.6742 16.461 11.1211 16.3124 11.5307L11.8181 24.9749H7.39811L1.19525 6.39142H4.98382L9.10668 18.7928C9.25525 19.2025 9.32954 19.6494 9.32954 20.0962V22.4052H9.88668V20.0962C9.88668 19.6494 9.96097 19.2025 10.1095 18.7928L14.2324 6.39142H19.3953L23.5181 18.7928C23.6667 19.2025 23.741 19.6494 23.741 20.0962V22.4052H24.2981V20.0962C24.2981 19.6494 24.3724 19.2025 24.521 18.7928L28.6438 6.39142ZM53.671 15.7018C53.671 16.2231 53.6338 16.7445 53.5224 17.2287H35.8796C36.6596 19.91 39.371 21.8838 42.6024 21.8838C44.6824 21.8838 46.5024 21.0645 47.8024 19.7983H52.631C50.8853 23.15 47.0596 25.4962 42.6024 25.4962C36.511 25.4962 31.5709 21.1018 31.5709 15.7018C31.5709 10.2645 36.511 5.87004 42.6024 5.87004C48.1367 5.87004 52.7053 9.44521 53.5224 14.1376C53.6338 14.659 53.671 15.1431 53.671 15.7018ZM37.2538 14.1376H49.3253C48.5824 11.4562 45.8338 9.48246 42.6024 9.48246C39.5567 9.48246 36.9938 11.2328 36.0281 13.6535C35.9538 13.9514 35.8053 14.2121 35.6567 14.4356L34.9138 15.5156L35.3967 15.8507L36.1024 14.7335C36.3624 14.3611 36.771 14.1376 37.2538 14.1376ZM65.9482 5.87004C72.0768 5.87004 77.0168 10.2645 77.0168 15.7018C77.0168 21.1018 73.1168 25.4962 68.2883 25.4962C63.4597 25.4962 59.5225 21.5487 59.5225 16.7073H63.6454C63.6454 19.5749 65.7254 21.8838 68.2883 21.8838C70.814 21.8838 72.894 19.0907 72.894 15.7018C72.894 12.2756 69.8111 9.48246 65.9482 9.48246C62.1225 9.48246 59.0025 12.2756 59.0025 15.7018V24.9749H54.9168V0.209351H59.0025V6.65211C59.0025 7.24797 58.8911 7.80659 58.6683 8.32797L57.7397 10.4135L58.2225 10.6369L58.9654 8.99832C59.374 8.06728 60.154 7.28521 61.0825 6.87556C62.5683 6.24246 64.2025 5.87004 65.9482 5.87004Z" fill="#1B91FF"/>
<path d="M89.0077 3C93.8258 3 97.7545 7.36471 97.7545 12.7176H93.6405C93.6405 9.54706 91.565 6.99412 89.0077 6.99412C85.1902 6.99412 82.0769 10.0824 82.0769 13.8706V24.1235H78V3.57647H82.0769V3.86471C82.0769 4.52353 81.9657 5.14118 81.7433 5.71765L80.8168 8.02353L81.2986 8.27059L82.0398 6.45882C82.4475 5.42941 83.2259 4.56471 84.1524 4.11176C85.6349 3.41176 87.2657 3 89.0077 3ZM115.145 3.53529H119.148L106.843 31L103.619 29.1882L105.768 24.4941L96.3915 3.53529H100.394L107.066 18.4412C107.325 19.0588 107.473 19.7588 107.473 20.4588V21.2412H108.029V20.4588C108.029 19.7588 108.177 19.0588 108.474 18.4412L115.145 3.53529ZM124.52 19.4294C124.186 19.8824 123.742 20.2118 123.297 20.5L122.37 20.9941L122.63 21.5294L123.26 21.1588C123.853 20.8706 124.483 20.7059 125.113 20.7059H134.305V24.1235H118.924V20.7059L128.189 8.31176C128.56 7.85882 129.005 7.44706 129.486 7.15882L130.339 6.70588L130.079 6.17059L129.412 6.54118C128.856 6.82941 128.226 6.99412 127.596 6.99412H118.924V3.57647H134.305V6.99412L124.52 19.4294ZM156 13.8706C156 14.4471 155.963 15.0235 155.852 15.5588H138.247C139.025 18.5235 141.731 20.7059 144.955 20.7059C147.031 20.7059 148.847 19.8 150.144 18.4H154.962C153.22 22.1059 149.403 24.7 144.955 24.7C138.877 24.7 133.948 19.8412 133.948 13.8706C133.948 7.85882 138.877 3 144.955 3C150.478 3 155.036 6.95294 155.852 12.1412C155.963 12.7176 156 13.2529 156 13.8706ZM139.618 12.1412H151.664C150.922 9.17647 148.18 6.99412 144.955 6.99412C141.916 6.99412 139.359 8.92941 138.395 11.6059C138.321 11.9353 138.173 12.2235 138.025 12.4706L137.283 13.6647L137.765 14.0353L138.469 12.8C138.729 12.3882 139.136 12.1412 139.618 12.1412Z" fill="#0472D9"/>
</g>
<defs>
<clipPath id="clip0_111_4">
<rect width="156" height="36" fill="white" transform="translate(0.960022 0.109985)"/>
</clipPath>
</defs>
</svg>
